# xmcd
#
# Track frame offsets: 
#        182
#        21974
#        39605
#        59287
#        83984
#        110371
#        134471
#        161348
#        182988
#        202504
#
# Disc length: 3088 seconds
#
# Revision: 0
# Processed by: cddbd v1.5.1PL0 Copyright (c) Steve Scherf et al.
# Submitted via: ExactAudioCopy v0.95a5
#
DISCID=7e0c0e0a
DTITLE=Michael Hill - Black Gold and Goddess Bold !
DYEAR=2005
DGENRE=Blues
TTITLE0=Let The Ladies Have The Floor
TTITLE1=Black Gold
TTITLE2=By George !
TTITLE3=New York Doll
TTITLE4=Specialization
TTITLE5=Afraid Of Love
TTITLE6=Fear Itself
TTITLE7=Mr. Hubert Sumlin
TTITLE8=Bad Boy (Sleep With Anger)
TTITLE9=Home I Love
EXTD=
EXTT0=
EXTT1=
EXTT2=
EXTT3=
EXTT4=
EXTT5=
EXTT6=
EXTT7=
EXTT8=
EXTT9=
PLAYORDER=
